<svg width="500" height="500" viewBox="0 0 500 500" fill="none" xmlns="http://www.w3.org/2000/svg">
<g clip-path="url(#clip0_163_85)">
<rect width="500" height="500" rx="60" fill="#22C55E"/>
<path d="M209.091 315.882V310.449C209.197 291.805 210.849 276.944 214.045 265.864C217.347 254.785 222.141 245.836 228.427 239.018C234.712 232.2 242.276 226.021 251.119 220.481C257.724 216.219 263.636 211.798 268.857 207.217C274.077 202.636 278.232 197.576 281.321 192.036C284.411 186.39 285.955 180.104 285.955 173.18C285.955 165.829 284.197 159.384 280.682 153.844C277.166 148.304 272.425 144.043 266.46 141.06C260.6 138.077 254.102 136.585 246.964 136.585C240.039 136.585 233.487 138.13 227.308 141.219C221.129 144.202 216.069 148.677 212.127 154.643C208.185 160.502 206.055 167.8 205.735 176.536H140.536C141.069 155.229 146.183 137.651 155.877 123.801C165.572 109.845 178.409 99.4581 194.389 92.6399C210.369 85.7152 228.001 82.2528 247.283 82.2528C268.484 82.2528 287.234 85.7685 303.533 92.7997C319.833 99.7244 332.617 109.792 341.886 123.002C351.154 136.212 355.788 152.139 355.788 170.783C355.788 183.247 353.711 194.327 349.556 204.021C345.508 213.609 339.808 222.132 332.457 229.589C325.107 236.94 316.424 243.599 306.41 249.565C297.994 254.572 291.069 259.792 285.636 265.225C280.309 270.658 276.314 276.944 273.651 284.082C271.094 291.219 269.762 300.009 269.656 310.449V315.882H209.091ZM240.732 418.155C230.078 418.155 220.969 414.426 213.406 406.969C205.948 399.405 202.273 390.349 202.379 379.803C202.273 369.362 205.948 360.413 213.406 352.956C220.969 345.499 230.078 341.77 240.732 341.77C250.852 341.77 259.748 345.499 267.418 352.956C275.089 360.413 278.977 369.362 279.084 379.803C278.977 386.834 277.113 393.279 273.491 399.138C269.975 404.891 265.341 409.526 259.588 413.041C253.835 416.45 247.55 418.155 240.732 418.155Z" fill="white"/>
</g>
<defs>
<clipPath id="clip0_163_85">
<rect width="500" height="500" fill="white"/>
</clipPath>
</defs>
</svg>
